Preview_RobotoExtremo-wght_100.00_wdth_125.00_opsz_24.00_GRAD_0.00_XTRA_468.00_XOPQ_96.00_YOPQ_79.00.ufo
<glyph name="quotesingle" format="2">
  <advance width="319"/>
  <unicode hex="0027"/>
  <outline>
    <contour>
      <point x="123.58923076923078" y="1104.1861538461537" type="line"/>
      <point x="121.12307692307692" y="1362.0015384615385" type="line"/>
      <point x="121.12307692307692" y="1456.0" type="line"/>
      <point x="199.8723076923077" y="1456.0" type="line"/>
      <point x="199.8723076923077" y="1362.0015384615385" type="line"/>
      <point x="198.40615384615387" y="1104.1861538461537" type="line"/>
    </contour>
  </outline>
</glyph>
<glyph name="parenleft" format="2">
  <advance width="621"/>
  <unicode hex="0028"/>
  <outline>
    <contour>
      <point x="665.3076923076925" y="-436.0" type="line"/>
      <point x="456.5215384615384" y="-367.9"/>
      <point x="126.76923076923077" y="98.12307692307692"/>
      <point x="126.76923076923077" y="515.1538461538462" type="qcurve" smooth="yes"/>
      <point x="126.76923076923077" y="525.0769230769231" type="line" smooth="yes"/>
      <point x="126.76923076923077" y="920.6353846153846"/>
      <point x="451.7615384615384" y="1410.6200000000001"/>
      <point x="665.3076923076925" y="1476.0" type="qcurve"/>
      <point x="665.3076923076925" y="1425.7584615384615" type="line"/>
      <point x="488.86153846153843" y="1362.7861538461539"/>
      <point x="199.2123076923077" y="933.5415384615385"/>
      <point x="199.2123076923077" y="531.8461538461538" type="qcurve" smooth="yes"/>
      <point x="199.2123076923077" y="508.15384615384613" type="line" smooth="yes"/>
      <point x="199.2123076923077" y="88.77538461538461"/>
      <point x="492.60153846153844" y="-317.54"/>
      <point x="665.3076923076925" y="-383.9123076923077" type="qcurve"/>
    </contour>
  </outline>
</glyph>
<glyph name="hyphen" format="2">
  <advance width="673"/>
  <unicode hex="002D"/>
  <outline>
    <contour>
      <point x="42.30769230769231" y="610.5184615384617" type="line"/>
      <point x="42.30769230769231" y="673.7107692307692" type="line"/>
      <point x="631.1646153846153" y="673.7107692307692" type="line"/>
      <point x="631.1646153846153" y="610.5184615384617" type="line"/>
    </contour>
  </outline>
</glyph>
<glyph name="zero" format="2">
  <advance width="1287"/>
  <unicode hex="0030"/>
  <outline>
    <contour>
      <point x="137.3846153846154" y="543.3076923076923" type="qcurve" smooth="yes"/>
      <point x="137.3846153846154" y="914.6923076923076" type="line" smooth="yes"/>
      <point x="137.3846153846154" y="1185.6153846153848"/>
      <point x="411.1538461538462" y="1485.3076923076924"/>
      <point x="641.2307692307693" y="1485.3076923076924" type="qcurve" smooth="yes"/>
      <point x="871.3076923076923" y="1485.3076923076924"/>
      <point x="1145.923076923077" y="1195.6153846153845"/>
      <point x="1145.923076923077" y="915.1538461538461" type="qcurve" smooth="yes"/>
      <point x="1145.923076923077" y="541.8461538461538" type="line" smooth="yes"/>
      <point x="1145.923076923077" y="269.46153846153845"/>
      <point x="871.3076923076923" y="-29.307692307692307"/>
      <point x="641.2307692307693" y="-29.307692307692307" type="qcurve" smooth="yes"/>
      <point x="411.15384615384613" y="-29.307692307692307"/>
      <point x="137.3846153846154" y="269.30769230769226"/>
    </contour>
    <contour>
      <point x="210.61538461538458" y="533.6923076923076" type="line" smooth="yes"/>
      <point x="210.61538461538458" y="294.38461538461536"/>
      <point x="437.0" y="37.15384615384615"/>
      <point x="641.2307692307693" y="37.15384615384615" type="qcurve" smooth="yes"/>
      <point x="846.3846153846154" y="37.15384615384615"/>
      <point x="1073.6153846153848" y="294.2307692307692"/>
      <point x="1073.6153846153848" y="532.1538461538461" type="qcurve" smooth="yes"/>
      <point x="1073.6153846153848" y="924.8461538461538" type="line" smooth="yes"/>
      <point x="1073.6153846153848" y="1159.8461538461536"/>
      <point x="846.5384615384615" y="1418.6923076923078"/>
      <point x="641.2307692307693" y="1418.6923076923078" type="qcurve" smooth="yes"/>
      <point x="437.07692307692304" y="1418.6923076923078"/>
      <point x="210.61538461538458" y="1158.8461538461536"/>
      <point x="210.61538461538458" y="924.0" type="qcurve" smooth="yes"/>
    </contour>
  </outline>
</glyph>
<glyph name="one" format="2">
  <advance width="1287"/>
  <unicode hex="0031"/>
  <outline>
    <contour>
      <point x="680.2307692307692" y="0.0" type="line"/>
      <point x="680.2307692307692" y="1406.9230769230771" type="line"/>
      <point x="202.46153846153845" y="1236.230769230769" type="line"/>
      <point x="202.46153846153845" y="1305.0000000000002" type="line"/>
      <point x="709.5384615384615" y="1476.0" type="line"/>
      <point x="752.4615384615386" y="1476.0" type="line"/>
      <point x="752.4615384615386" y="0.0" type="line"/>
    </contour>
  </outline>
</glyph>
<glyph name="two" format="2">
  <advance width="1287"/>
  <unicode hex="0032"/>
  <outline>
    <contour>
      <point x="124.46153846153842" y="0.0" type="line"/>
      <point x="124.46153846153842" y="61.61538461538461" type="line"/>
      <point x="773.5384615384614" y="655.6923076923078" type="line" smooth="yes"/>
      <point x="881.3846153846154" y="756.2307692307692"/>
      <point x="1048.7692307692305" y="972.8461538461538"/>
      <point x="1048.7692307692307" y="1103.230769230769" type="qcurve" smooth="yes"/>
      <point x="1048.7692307692307" y="1236.5384615384614"/>
      <point x="843.9230769230769" y="1418.769230769231"/>
      <point x="651.9230769230769" y="1418.769230769231" type="qcurve" smooth="yes"/>
      <point x="452.38461538461536" y="1418.769230769231"/>
      <point x="200.9230769230769" y="1234.4615384615386"/>
      <point x="200.9230769230769" y="1060.1538461538462" type="qcurve" smooth="yes"/>
      <point x="200.9230769230769" y="1031.1538461538462" type="line"/>
      <point x="129.6153846153846" y="1031.1538461538462" type="line"/>
      <point x="129.6153846153846" y="1060.076923076923" type="line" smooth="yes"/>
      <point x="129.6153846153846" y="1252.230769230769"/>
      <point x="417.84615384615387" y="1485.3076923076924"/>
      <point x="651.8461538461539" y="1485.3076923076924" type="qcurve" smooth="yes"/>
      <point x="875.6153846153845" y="1485.3076923076924"/>
      <point x="1124.0" y="1263.3846153846155"/>
      <point x="1124.0" y="1114.3846153846155" type="qcurve" smooth="yes"/>
      <point x="1124.0" y="951.3076923076924"/>
      <point x="958.1538461538462" y="727.7692307692307"/>
      <point x="821.2307692307692" y="602.4615384615386" type="qcurve" smooth="yes"/>
      <point x="234.2307692307692" y="54.30769230769231" type="line"/>
      <point x="1171.3846153846155" y="54.30769230769231" type="line"/>
      <point x="1171.3846153846155" y="0.0" type="line"/>
    </contour>
  </outline>
</glyph>
<glyph name="three" format="2">
  <advance width="1287"/>
  <unicode hex="0033"/>
  <outline>
    <contour>
      <point x="120.0" y="381.84615384615387" type="qcurve" smooth="yes"/>
      <point x="120.0" y="391.84615384615387" type="line"/>
      <point x="192.46153846153845" y="391.84615384615387" type="line"/>
      <point x="192.46153846153845" y="381.84615384615387" type="line" smooth="yes"/>
      <point x="192.46153846153845" y="212.6153846153846"/>
      <point x="440.5384615384616" y="34.30769230769231"/>
      <point x="639.6923076923077" y="34.30769230769231" type="qcurve" smooth="yes"/>
      <point x="839.6153846153845" y="34.30769230769231"/>
      <point x="1082.7692307692307" y="223.5384615384615"/>
      <point x="1082.7692307692307" y="393.7692307692308" type="qcurve" smooth="yes"/>
      <point x="1082.7692307692307" y="560.5384615384617"/>
      <point x="815.7692307692307" y="723.0000000000001"/>
      <point x="612.7692307692308" y="726.0000000000001" type="qcurve" smooth="yes"/>
      <point x="458.61538461538464" y="725.0000000000001" type="line"/>
      <point x="458.61538461538464" y="794.6153846153845" type="line"/>
      <point x="601.1538461538462" y="794.6153846153845" type="line" smooth="yes"/>
      <point x="804.7692307692307" y="794.6153846153845"/>
      <point x="1018.769230769231" y="964.9230769230769"/>
      <point x="1018.769230769231" y="1101.3076923076926" type="qcurve" smooth="yes"/>
      <point x="1018.769230769231" y="1251.8461538461536"/>
      <point x="813.0769230769231" y="1418.6923076923076"/>
      <point x="638.0769230769231" y="1419.6923076923076" type="qcurve" smooth="yes"/>
      <point x="463.6153846153846" y="1419.6923076923076"/>
      <point x="238.15384615384616" y="1246.4615384615383"/>
      <point x="238.15384615384616" y="1098.1538461538462" type="qcurve" smooth="yes"/>
      <point x="238.15384615384616" y="1088.153846153846" type="line"/>
      <point x="166.84615384615387" y="1088.153846153846" type="line"/>
      <point x="166.84615384615387" y="1098.1538461538462" type="line" smooth="yes"/>
      <point x="166.84615384615387" y="1268.3076923076924"/>
      <point x="435.92307692307696" y="1485.3076923076924"/>
      <point x="643.0769230769231" y="1485.3076923076924" type="qcurve" smooth="yes"/>
      <point x="849.4615384615386" y="1485.3076923076924"/>
      <point x="1092.0000000000002" y="1269.7692307692307"/>
      <point x="1092.0000000000002" y="1099.6153846153848" type="qcurve" smooth="yes"/>
      <point x="1092.0000000000002" y="978.7692307692307"/>
      <point x="944.3846153846154" y="799.4615384615385"/>
      <point x="785.7692307692308" y="768.8461538461538" type="qcurve"/>
      <point x="785.7692307692308" y="764.8461538461538" type="line"/>
      <point x="961.0769230769231" y="739.3076923076924"/>
      <point x="1156.076923076923" y="542.7692307692308"/>
      <point x="1156.076923076923" y="395.6153846153846" type="qcurve" smooth="yes"/>
      <point x="1156.076923076923" y="209.53846153846155"/>
      <point x="876.3846153846154" y="-29.307692307692307"/>
      <point x="643.6923076923077" y="-29.307692307692307" type="qcurve" smooth="yes"/>
      <point x="412.6923076923077" y="-29.307692307692307"/>
      <point x="120.0" y="183.23076923076925"/>
    </contour>
  </outline>
</glyph>
<glyph name="four" format="2">
  <advance width="1287"/>
  <unicode hex="0034"/>
  <outline>
    <contour>
      <point x="881.0" y="0.0" type="line"/>
      <point x="881.0" y="390.99999999999994" type="line"/>
      <point x="881.0" y="405.76923076923083" type="line"/>
      <point x="881.0" y="1364.5384615384614" type="line"/>
      <point x="875.1538461538462" y="1364.5384615384614" type="line"/>
      <point x="162.69230769230768" y="431.0" type="line"/>
      <point x="880.2307692307693" y="431.0" type="line"/>
      <point x="911.5384615384615" y="431.0" type="line"/>
      <point x="1187.3076923076924" y="431.0" type="line"/>
      <point x="1187.3076923076924" y="368.38461538461536" type="line"/>
      <point x="78.76923076923076" y="368.38461538461536" type="line"/>
      <point x="78.76923076923076" y="442.46153846153845" type="line"/>
      <point x="876.3846153846154" y="1456.0" type="line"/>
      <point x="951.1538461538461" y="1456.0" type="line"/>
      <point x="951.1538461538461" y="0.0" type="line"/>
    </contour>
  </outline>
</glyph>
<glyph name="five" format="2">
  <advance width="1287"/>
  <unicode hex="0035"/>
  <outline>
    <contour>
      <point x="130.9230769230769" y="359.6153846153845" type="qcurve" smooth="yes"/>
      <point x="130.9230769230769" y="380.6153846153846" type="line"/>
      <point x="202.23076923076923" y="380.6153846153846" type="line"/>
      <point x="202.23076923076923" y="359.6153846153846" type="line" smooth="yes"/>
      <point x="202.23076923076923" y="205.23076923076923"/>
      <point x="434.7692307692308" y="37.30769230769231"/>
      <point x="632.3846153846154" y="37.30769230769231" type="qcurve" smooth="yes"/>
      <point x="830.5384615384614" y="37.30769230769231"/>
      <point x="1071.4615384615386" y="262.84615384615387"/>
      <point x="1071.4615384615386" y="464.7692307692308" type="qcurve" smooth="yes"/>
      <point x="1071.4615384615386" y="646.3846153846154"/>
      <point x="830.230769230769" y="844.9230769230769"/>
      <point x="637.5384615384614" y="844.9230769230769" type="qcurve" smooth="yes"/>
      <point x="522.1538461538462" y="844.923076923077"/>
      <point x="327.38461538461536" y="757.0769230769231"/>
      <point x="268.5384615384615" y="689.3846153846154" type="qcurve"/>
      <point x="193.0769230769231" y="718.9230769230769" type="line"/>
      <point x="269.2307692307692" y="1455.923076923077" type="line"/>
      <point x="1066.3076923076924" y="1455.923076923077" type="line"/>
      <point x="1066.3076923076924" y="1391.3076923076924" type="line"/>
      <point x="327.3846153846154" y="1391.3076923076924" type="line"/>
      <point x="264.4615384615385" y="766.3076923076923" type="line"/>
      <point x="320.4615384615385" y="825.5384615384615"/>
      <point x="533.0" y="911.5384615384615"/>
      <point x="657.7692307692308" y="911.5384615384615" type="qcurve" smooth="yes"/>
      <point x="867.9230769230769" y="911.5384615384615"/>
      <point x="1144.7692307692307" y="668.3846153846154"/>
      <point x="1144.7692307692307" y="464.7692307692308" type="qcurve" smooth="yes"/>
      <point x="1144.7692307692307" y="238.23076923076923"/>
      <point x="866.2307692307692" y="-29.307692307692307"/>
      <point x="632.3846153846154" y="-29.307692307692307" type="qcurve" smooth="yes"/>
      <point x="400.1538461538462" y="-29.307692307692307"/>
      <point x="130.9230769230769" y="193.46153846153845"/>
    </contour>
  </outline>
</glyph>
<glyph name="six" format="2">
  <advance width="1287"/>
  <unicode hex="0036"/>
  <outline>
    <contour>
      <point x="120.46153846153844" y="614.0" type="qcurve" smooth="yes"/>
      <point x="120.46153846153844" y="644.0" type="line" smooth="yes"/>
      <point x="120.46153846153844" y="1022.8461538461538"/>
      <point x="578.2307692307692" y="1485.0"/>
      <point x="966.1538461538461" y="1485.0" type="qcurve" smooth="yes"/>
      <point x="990.3846153846154" y="1485.0" type="line"/>
      <point x="990.3846153846154" y="1420.3076923076924" type="line"/>
      <point x="966.1538461538461" y="1420.3076923076924" type="line" smooth="yes"/>
      <point x="629.5384615384615" y="1420.3076923076924"/>
      <point x="191.69230769230768" y="1015.3846153846156"/>
      <point x="191.69230769230768" y="652.0" type="qcurve" smooth="yes"/>
      <point x="191.69230769230768" y="605.0" type="line" smooth="yes"/>
      <point x="191.69230769230768" y="299.0"/>
      <point x="478.8461538461538" y="33.230769230769226"/>
      <point x="687.4615384615385" y="33.230769230769226" type="qcurve" smooth="yes"/>
      <point x="878.4615384615385" y="33.230769230769226"/>
      <point x="1120.4615384615386" y="263.46153846153845"/>
      <point x="1120.4615384615386" y="463.0" type="qcurve" smooth="yes"/>
      <point x="1120.4615384615386" y="649.3846153846154"/>
      <point x="875.3846153846154" y="859.9230769230768"/>
      <point x="691.3076923076923" y="859.9230769230768" type="qcurve" smooth="yes"/>
      <point x="515.0" y="859.9230769230768"/>
      <point x="190.23076923076923" y="622.1538461538462"/>
      <point x="191.0" y="459.2307692307693" type="qcurve"/>
      <point x="152.15384615384616" y="459.2307692307693" type="line"/>
      <point x="151.38461538461542" y="664.6923076923077"/>
      <point x="500.6923076923077" y="923.6153846153846"/>
      <point x="710.6923076923077" y="923.6153846153846" type="qcurve" smooth="yes"/>
      <point x="920.6923076923078" y="923.6153846153846"/>
      <point x="1192.6923076923078" y="670.0000000000001"/>
      <point x="1192.6923076923078" y="463.0" type="qcurve" smooth="yes"/>
      <point x="1192.6923076923078" y="241.84615384615387"/>
      <point x="915.3846153846154" y="-29.23076923076923"/>
      <point x="688.3846153846154" y="-29.23076923076923" type="qcurve" smooth="yes"/>
      <point x="451.00000000000006" y="-29.23076923076923"/>
      <point x="120.46153846153844" y="275.3076923076923"/>
    </contour>
  </outline>
</glyph>
<glyph name="seven" format="2">
  <advance width="1287"/>
  <unicode hex="0037"/>
  <outline>
    <contour>
      <point x="406.5384615384615" y="0.0" type="line"/>
      <point x="1077.1538461538457" y="1394.1538461538462" type="line"/>
      <point x="136.23076923076923" y="1394.1538461538462" type="line"/>
      <point x="136.23076923076923" y="1456.0" type="line"/>
      <point x="1153.2307692307693" y="1456.0" type="line"/>
      <point x="1153.2307692307693" y="1393.5384615384614" type="line"/>
      <point x="484.92307692307696" y="0.0" type="line"/>
    </contour>
  </outline>
</glyph>
<glyph name="eight" format="2">
  <advance width="1287"/>
  <unicode hex="0038"/>
  <outline>
    <contour>
      <point x="128.84615384615384" y="376.9230769230769" type="qcurve" smooth="yes"/>
      <point x="128.84615384615384" y="512.5384615384614"/>
      <point x="320.69230769230774" y="709.2307692307693"/>
      <point x="459.46153846153845" y="743.4615384615385" type="qcurve"/>
      <point x="459.46153846153845" y="747.6153846153846" type="line"/>
      <point x="336.46153846153857" y="779.1538461538462"/>
      <point x="180.69230769230768" y="970.6923076923077"/>
      <point x="180.69230769230768" y="1095.8461538461538" type="qcurve" smooth="yes"/>
      <point x="180.69230769230768" y="1272.0"/>
      <point x="449.0769230769231" y="1485.2307692307693"/>
      <point x="642.3846153846154" y="1485.2307692307693" type="qcurve" smooth="yes"/>
      <point x="835.6923076923077" y="1485.2307692307693"/>
      <point x="1107.2307692307695" y="1268.153846153846"/>
      <point x="1107.2307692307695" y="1095.8461538461538" type="qcurve" smooth="yes"/>
      <point x="1107.2307692307695" y="970.0769230769231"/>
      <point x="943.7692307692308" y="773.9230769230769"/>
      <point x="824.2307692307692" y="747.7692307692307" type="qcurve"/>
      <point x="824.2307692307692" y="743.6153846153848" type="line"/>
      <point x="970.1538461538462" y="710.3076923076922"/>
      <point x="1160.2307692307693" y="512.7692307692307"/>
      <point x="1160.3076923076924" y="376.9230769230769" type="qcurve" smooth="yes"/>
      <point x="1160.3846153846155" y="184.38461538461536"/>
      <point x="864.4615384615383" y="-29.23076923076923"/>
      <point x="642.3846153846154" y="-29.23076923076923" type="qcurve" smooth="yes"/>
      <point x="419.7692307692308" y="-29.23076923076923"/>
      <point x="128.84615384615384" y="184.38461538461536"/>
    </contour>
    <contour>
      <point x="201.3076923076923" y="378.8461538461538" type="qcurve" smooth="yes"/>
      <point x="201.3076923076923" y="224.0"/>
      <point x="448.0" y="33.61538461538462"/>
      <point x="642.3846153846154" y="33.61538461538461" type="qcurve" smooth="yes"/>
      <point x="837.8461538461538" y="33.61538461538461"/>
      <point x="1087.8461538461538" y="223.0"/>
      <point x="1087.8461538461538" y="378.8461538461538" type="qcurve" smooth="yes"/>
      <point x="1087.8461538461538" y="527.3846153846154"/>
      <point x="841.1538461538462" y="714.4615384615385"/>
      <point x="642.3846153846154" y="714.4615384615385" type="qcurve" smooth="yes"/>
      <point x="435.2307692307693" y="714.4615384615385"/>
      <point x="201.3076923076923" y="528.3076923076924"/>
    </contour>
    <contour>
      <point x="252.15384615384616" y="1093.923076923077" type="qcurve" smooth="yes"/>
      <point x="252.15384615384616" y="955.7692307692307"/>
      <point x="462.1538461538462" y="776.3076923076924"/>
      <point x="642.3846153846154" y="776.3076923076923" type="qcurve" smooth="yes"/>
      <point x="814.0769230769231" y="776.3076923076923"/>
      <point x="1035.7692307692307" y="955.7692307692307"/>
      <point x="1035.7692307692307" y="1093.923076923077" type="qcurve" smooth="yes"/>
      <point x="1035.7692307692307" y="1238.076923076923"/>
      <point x="809.6923076923076" y="1421.5384615384614"/>
      <point x="642.3846153846154" y="1421.5384615384614" type="qcurve" smooth="yes"/>
      <point x="475.9230769230769" y="1421.5384615384614"/>
      <point x="252.15384615384616" y="1238.3076923076922"/>
    </contour>
  </outline>
</glyph>
<glyph name="nine" format="2">
  <advance width="1287"/>
  <unicode hex="0039"/>
  <outline>
    <contour>
      <point x="98.23076923076923" y="992.7692307692306" type="qcurve" smooth="yes"/>
      <point x="98.23076923076923" y="1213.923076923077"/>
      <point x="375.53846153846155" y="1485.0"/>
      <point x="602.5384615384614" y="1485.0" type="qcurve" smooth="yes"/>
      <point x="839.0" y="1485.0"/>
      <point x="1170.4615384615383" y="1180.4615384615383"/>
      <point x="1170.4615384615383" y="841.7692307692307" type="qcurve" smooth="yes"/>
      <point x="1170.4615384615383" y="811.7692307692307" type="line" smooth="yes"/>
      <point x="1170.4615384615383" y="432.92307692307685"/>
      <point x="712.6923076923077" y="-29.23076923076923"/>
      <point x="324.7692307692308" y="-29.23076923076923" type="qcurve" smooth="yes"/>
      <point x="299.61538461538464" y="-29.23076923076923" type="line"/>
      <point x="299.61538461538464" y="35.46153846153846" type="line"/>
      <point x="324.7692307692308" y="35.46153846153846" type="line" smooth="yes"/>
      <point x="661.3846153846156" y="35.46153846153846"/>
      <point x="1098.3076923076922" y="440.3846153846154"/>
      <point x="1098.3076923076922" y="803.7692307692307" type="qcurve" smooth="yes"/>
      <point x="1098.3076923076922" y="850.7692307692307" type="line" smooth="yes"/>
      <point x="1098.3076923076922" y="1156.7692307692305"/>
      <point x="812.0769230769232" y="1422.5384615384614"/>
      <point x="602.5384615384615" y="1422.5384615384614" type="qcurve" smooth="yes"/>
      <point x="411.53846153846155" y="1422.5384615384614"/>
      <point x="170.46153846153845" y="1192.3076923076924"/>
      <point x="170.46153846153845" y="992.7692307692306" type="qcurve" smooth="yes"/>
      <point x="170.46153846153845" y="806.3846153846155"/>
      <point x="414.61538461538464" y="595.8461538461539"/>
      <point x="598.6923076923077" y="595.8461538461539" type="qcurve" smooth="yes"/>
      <point x="775.9230769230769" y="595.8461538461539"/>
      <point x="1099.7692307692307" y="833.6153846153846"/>
      <point x="1099.0" y="996.5384615384615" type="qcurve"/>
      <point x="1138.7692307692307" y="996.5384615384615" type="line"/>
      <point x="1139.5384615384617" y="791.0769230769231"/>
      <point x="789.3076923076924" y="532.1538461538462"/>
      <point x="579.3076923076925" y="532.1538461538462" type="qcurve" smooth="yes"/>
      <point x="371.1538461538462" y="532.1538461538462"/>
      <point x="98.23076923076923" y="786.6923076923076"/>
    </contour>
  </outline>
</glyph>
<glyph name="semicolon" format="2">
  <advance width="505"/>
  <unicode hex="003B"/>
  <outline>
    <contour>
      <point x="169.00461538461542" y="-144.58923076923074" type="line"/>
      <point x="198.42769230769233" y="-103.00923076923074"/>
      <point x="227.20769230769233" y="-10.43230769230769"/>
      <point x="226.82307692307688" y="52.215384615384615" type="qcurve" smooth="yes"/>
      <point x="226.66923076923078" y="147.45538461538462" type="line"/>
      <point x="309.03846153846155" y="147.53230769230765" type="line"/>
      <point x="309.19230769230774" y="52.36923076923077" type="line" smooth="yes"/>
      <point x="309.7307692307692" y="-23.28153846153846"/>
      <point x="265.79999999999995" y="-133.89076923076922"/>
      <point x="225.42923076923074" y="-177.61230769230764" type="qcurve"/>
    </contour>
    <contour>
      <point x="190.5523076923077" y="977.7338461538461" type="qcurve" smooth="yes"/>
      <point x="190.5523076923077" y="1010.9584615384615"/>
      <point x="221.76153846153846" y="1056.1538461538464"/>
      <point x="251.56769230769228" y="1056.1538461538464" type="qcurve" smooth="yes"/>
      <point x="281.71384615384613" y="1056.1538461538464"/>
      <point x="312.583076923077" y="1010.9584615384615"/>
      <point x="312.583076923077" y="977.656923076923" type="qcurve" smooth="yes"/>
      <point x="312.583076923077" y="945.3553846153845"/>
      <point x="281.63692307692304" y="899.2369230769231"/>
      <point x="251.49076923076922" y="899.2369230769231" type="qcurve" smooth="yes"/>
      <point x="222.6846153846154" y="899.2369230769231"/>
      <point x="190.5523076923077" y="945.3553846153847"/>
    </contour>
  </outline>
</glyph>
<glyph name="less" format="2">
  <advance width="1430"/>
  <unicode hex="003C"/>
  <outline>
    <contour>
      <point x="1182.2061538461535" y="257.4123076923077" type="line"/>
      <point x="237.53846153846152" y="641.4338461538462" type="line"/>
      <point x="237.53846153846152" y="711.6184615384616" type="line"/>
      <point x="1182.2061538461535" y="1092.2400000000007" type="line"/>
      <point x="1182.2061538461535" y="1021.7969230769231" type="line"/>
      <point x="324.9353846153846" y="670.2107692307693" type="line"/>
      <point x="1182.2061538461535" y="315.2246153846154" type="line"/>
    </contour>
  </outline>
</glyph>
<glyph name="equal" format="2">
  <advance width="1434"/>
  <unicode hex="003D"/>
  <outline>
    <contour>
      <point x="285.1384615384615" y="458.78000000000003" type="line"/>
      <point x="285.1384615384615" y="515.9169230769232" type="line"/>
      <point x="1148.7630769230766" y="515.9169230769232" type="line"/>
      <point x="1148.7630769230766" y="458.78000000000003" type="line"/>
    </contour>
    <contour>
      <point x="285.1384615384615" y="862.8707692307694" type="line"/>
      <point x="285.1384615384615" y="920.0076923076923" type="line"/>
      <point x="1148.7630769230766" y="920.0076923076923" type="line"/>
      <point x="1148.7630769230766" y="862.8707692307694" type="line"/>
    </contour>
  </outline>
</glyph>
<glyph name="B" format="2">
  <advance width="1259"/>
  <unicode hex="0042"/>
  <outline>
    <contour>
      <point x="182.9538461538462" y="0.0" type="line"/>
      <point x="182.9538461538462" y="1456.0" type="line"/>
      <point x="657.8507692307692" y="1456.0" type="line" smooth="yes"/>
      <point x="872.2199999999997" y="1456.0"/>
      <point x="1113.12" y="1280.5476923076922"/>
      <point x="1113.12" y="1092.9784615384615" type="qcurve" smooth="yes"/>
      <point x="1113.12" y="961.8153846153847"/>
      <point x="979.9799999999998" y="793.136923076923"/>
      <point x="877.7046153846154" y="766.0969230769231" type="qcurve"/>
      <point x="877.7046153846154" y="762.3276923076922" type="line"/>
      <point x="1002.8923076923076" y="735.3646153846155"/>
      <point x="1161.1107692307692" y="548.5123076923078"/>
      <point x="1161.1107692307692" y="395.2153846153846" type="qcurve" smooth="yes"/>
      <point x="1161.1107692307692" y="207.41538461538462"/>
      <point x="908.4323076923077" y="0.0"/>
      <point x="693.8984615384614" y="0.0" type="qcurve" smooth="yes"/>
    </contour>
    <contour>
      <point x="254.9" y="61.77692307692306" type="line"/>
      <point x="694.2830769230768" y="61.77692307692306" type="line" smooth="yes"/>
      <point x="896.0246153846155" y="61.77692307692306"/>
      <point x="1088.3415384615387" y="241.9723076923077"/>
      <point x="1088.3415384615387" y="396.0615384615384" type="qcurve" smooth="yes"/>
      <point x="1088.3415384615387" y="549.2599999999999"/>
      <point x="896.0713472163196" y="727.6215384615385"/>
      <point x="694.2830769230768" y="727.6215384615385" type="qcurve" smooth="yes"/>
      <point x="254.9" y="727.6215384615385" type="line"/>
    </contour>
    <contour>
      <point x="254.9" y="789.1476923076923" type="line"/>
      <point x="660.28" y="789.1476923076923" type="line" smooth="yes"/>
      <point x="862.8938461538462" y="789.1476923076923"/>
      <point x="1040.0107692307693" y="950.1646153846154"/>
      <point x="1040.0107692307693" y="1092.0553846153846" type="qcurve" smooth="yes"/>
      <point x="1040.0107692307693" y="1238.412307692308"/>
      <point x="858.5907561560252" y="1394.223076923077"/>
      <point x="657.5107692307693" y="1394.223076923077" type="qcurve" smooth="yes"/>
      <point x="254.9" y="1394.223076923077" type="line"/>
    </contour>
  </outline>
</glyph>
<glyph name="E" format="2">
  <advance width="1166"/>
  <unicode hex="0045"/>
  <anchor x="594.4615384615385" y="1275.3784615384614" name="top"/>
  <outline>
    <contour>
      <point x="182.9538461538462" y="0.0" type="line"/>
      <point x="182.9538461538462" y="1456.0" type="line"/>
      <point x="1087.803076923077" y="1456.0" type="line"/>
      <point x="1087.803076923077" y="1393.3000000000002" type="line"/>
      <point x="255.18" y="1393.3000000000002" type="line"/>
      <point x="255.18" y="781.9492307692308" type="line"/>
      <point x="977.1276923076922" y="781.9492307692308" type="line"/>
      <point x="977.1276923076922" y="720.5123076923077" type="line"/>
      <point x="255.18" y="720.5123076923077" type="line"/>
      <point x="255.18" y="62.69999999999999" type="line"/>
      <point x="1099.3615384615387" y="62.69999999999999" type="line"/>
      <point x="1099.3615384615387" y="0.0" type="line"/>
    </contour>
  </outline>
</glyph>
<glyph name="Q" format="2">
  <advance width="1510"/>
  <unicode hex="0051"/>
  <outline>
    <contour>
      <point x="120.03076923076925" y="708.8507692307692" type="qcurve" smooth="yes"/>
      <point x="120.03076923076925" y="749.4569230769232" type="line" smooth="yes"/>
      <point x="120.03076923076925" y="1099.103076923077"/>
      <point x="473.45076923076925" y="1485.5384615384617"/>
      <point x="757.1446153846153" y="1485.5384615384617" type="qcurve" smooth="yes"/>
      <point x="1040.1523076923074" y="1485.5384615384617"/>
      <point x="1390.3323076923077" y="1100.6415384615384"/>
      <point x="1390.3323076923077" y="749.8415384615386" type="qcurve" smooth="yes"/>
      <point x="1390.3323076923077" y="708.5430769230769" type="line" smooth="yes"/>
      <point x="1390.3323076923077" y="360.82000000000005"/>
      <point x="1041.7676923076922" y="-29.538461538461537"/>
      <point x="757.1446153846153" y="-29.538461538461537" type="qcurve" smooth="yes"/>
      <point x="472.8353846153846" y="-29.538461538461537"/>
      <point x="120.03076923076925" y="360.89692307692314"/>
    </contour>
    <contour>
      <point x="193.42" y="709.0815384615385" type="line" smooth="yes"/>
      <point x="193.42" y="388.44461538461536"/>
      <point x="500.8953846153846" y="33.57384615384614"/>
      <point x="757.1446153846155" y="33.57384615384614" type="qcurve" smooth="yes"/>
      <point x="1013.7076923076922" y="33.57384615384614"/>
      <point x="1317.283076923077" y="388.2907692307692"/>
      <point x="1317.283076923077" y="709.0815384615383" type="qcurve" smooth="yes"/>
      <point x="1317.283076923077" y="749.0723076923078" type="line" smooth="yes"/>
      <point x="1317.283076923077" y="1073.2476923076924"/>
      <point x="1012.1692307692307" y="1422.426153846154"/>
      <point x="757.1446153846152" y="1422.426153846154" type="qcurve" smooth="yes"/>
      <point x="502.54307692307697" y="1422.426153846154"/>
      <point x="193.42" y="1071.7861538461539"/>
      <point x="193.42" y="749.1492307692308" type="qcurve" smooth="yes"/>
    </contour>
    <contour>
      <point x="1358.2876923076922" y="-215.18153846153848" type="line"/>
      <point x="811.06" y="225.5092307692308" type="line"/>
      <point x="867.8753846153845" y="273.15076923076924" type="line"/>
      <point x="1416.084615384616" y="-163.51692307692306" type="line"/>
    </contour>
  </outline>
</glyph>
<glyph name="underscore" format="2">
  <advance width="979"/>
  <unicode hex="005F"/>
  <outline>
    <contour>
      <point x="0.0" y="-27.333846153846174" type="line"/>
      <point x="0.0" y="27.416923076923084" type="line"/>
      <point x="978.7692307692307" y="27.416923076923084" type="line"/>
      <point x="978.7692307692307" y="-27.333846153846174" type="line"/>
    </contour>
  </outline>
</glyph>
<glyph name="c" format="2">
  <advance width="1083"/>
  <unicode hex="0063"/>
  <anchor x="508.3846153846155" y="0" name="bottom"/>
  <outline>
    <contour>
      <point x="90.39538461538461" y="505.61538461538464" type="qcurve" smooth="yes"/>
      <point x="90.39538461538461" y="536.0" type="line" smooth="yes"/>
      <point x="90.39538461538461" y="773.076923076923"/>
      <point x="360.5738461538462" y="1071.3846153846152"/>
      <point x="597.8184615384615" y="1071.3846153846152" type="qcurve" smooth="yes"/>
      <point x="819.5569230769233" y="1071.3846153846152"/>
      <point x="1038.7846153846153" y="850.1584615384614"/>
      <point x="1038.7846153846153" y="704.6923076923076" type="qcurve" smooth="yes"/>
      <point x="1038.7846153846153" y="698.7692307692308" type="line"/>
      <point x="971.7338461538462" y="698.7692307692308" type="line"/>
      <point x="971.7338461538462" y="704.5384615384615" type="line" smooth="yes"/>
      <point x="971.7338461538462" y="826.0046153846154"/>
      <point x="793.6667518831317" y="1009.5138461538463"/>
      <point x="597.8184615384615" y="1009.5138461538463" type="qcurve" smooth="yes"/>
      <point x="376.6213972132087" y="1009.5138461538463"/>
      <point x="161.63538461538462" y="736.6123076923077"/>
      <point x="161.63538461538462" y="535.7692307692307" type="qcurve" smooth="yes"/>
      <point x="161.63538461538462" y="505.6923076923078" type="line" smooth="yes"/>
      <point x="161.63538461538462" y="304.3107692307692"/>
      <point x="377.2367818285932" y="31.870769230769245"/>
      <point x="597.8184615384615" y="31.870769230769245" type="qcurve" smooth="yes"/>
      <point x="793.8205980369778" y="31.870769230769245"/>
      <point x="970.8876923076921" y="215.30307692307696"/>
      <point x="971.8876923076921" y="336.1538461538462" type="qcurve" smooth="yes"/>
      <point x="972.0415384615383" y="342.3076923076923" type="line"/>
      <point x="1039.0923076923077" y="342.3076923076923" type="line"/>
      <point x="1038.9384615384615" y="336.00000000000006" type="line" smooth="yes"/>
      <point x="1037.9384615384618" y="190.84153846153845"/>
      <point x="819.1723076923079" y="-30.0"/>
      <point x="597.8953846153845" y="-30.0" type="qcurve" smooth="yes"/>
      <point x="361.2661538461538" y="-30.0"/>
      <point x="90.39538461538461" y="267.846153846154"/>
    </contour>
  </outline>
</glyph>
<glyph name="n" format="2">
  <advance width="1174"/>
  <unicode hex="006E"/>
  <anchor x="537.5384615384615" y="1041.3846153846155" name="top"/>
  <outline>
    <contour>
      <point x="154.86153846153846" y="0.0" type="line"/>
      <point x="154.86153846153846" y="1041.3846153846155" type="line"/>
      <point x="220.01999999999998" y="1041.3846153846155" type="line"/>
      <point x="222.62615384615384" y="857.8969230769229" type="line"/>
      <point x="220.5646153846154" y="857.8969230769229" type="line"/>
      <point x="296.8830769230768" y="956.7769230769228"/>
      <point x="514.975814117233" y="1062.3846153846155"/>
      <point x="654.1723076923079" y="1062.3846153846155" type="qcurve" smooth="yes"/>
      <point x="826.8399999999998" y="1062.3846153846155"/>
      <point x="1028.8400000000001" y="884.3730240751614"/>
      <point x="1028.8400000000001" y="680.4430769230769" type="qcurve" smooth="yes"/>
      <point x="1028.8400000000001" y="0.0" type="line"/>
      <point x="957.4507692307694" y="0.0" type="line"/>
      <point x="957.4507692307694" y="681.6738461538462" type="line" smooth="yes"/>
      <point x="957.4507692307694" y="849.0073518821602"/>
      <point x="783.9404276401564" y="999.9353846153848"/>
      <point x="622.6384615384616" y="999.9353846153848" type="qcurve" smooth="yes"/>
      <point x="487.2816244091104" y="999.9353846153848"/>
      <point x="287.0237069582488" y="870.5887880098401"/>
      <point x="225.6676923076923" y="774.0907692307692" type="qcurve"/>
      <point x="225.6676923076923" y="0.0" type="line"/>
    </contour>
  </outline>
</glyph>
<glyph name="r" format="2">
  <advance width="748"/>
  <unicode hex="0072"/>
  <outline>
    <contour>
      <point x="154.86153846153846" y="0.0" type="line"/>
      <point x="154.86153846153846" y="1041.3846153846155" type="line"/>
      <point x="220.02" y="1041.3846153846155" type="line"/>
      <point x="222.2861538461539" y="873.2184615384615" type="line"/>
      <point x="220.9046153846154" y="873.2184615384615" type="line"/>
      <point x="280.0471844661524" y="949.5017655998124"/>
      <point x="473.4077576814121" y="1071.6153846153845"/>
      <point x="605.5246153846153" y="1071.6153846153845" type="qcurve" smooth="yes"/>
      <point x="638.6938461538462" y="1071.6153846153845"/>
      <point x="702.1800000000001" y="1060.307692307692"/>
      <point x="715.463076923077" y="1055.6923076923078" type="qcurve"/>
      <point x="715.463076923077" y="992.4353846153847" type="line"/>
      <point x="690.1661538461536" y="997.2046153846154"/>
      <point x="632.6292307692308" y="1006.1646153846152"/>
      <point x="595.0046153846154" y="1006.1646153846152" type="qcurve" smooth="yes"/>
      <point x="468.83907692307696" y="1006.1646153846152"/>
      <point x="275.5180616567488" y="875.5190971624193"/>
      <point x="225.66769230769228" y="784.9507692307693" type="qcurve"/>
      <point x="225.66769230769228" y="0.0" type="line"/>
    </contour>
  </outline>
</glyph>
<glyph name="s" format="2">
  <advance width="1049"/>
  <unicode hex="0073"/>
  <outline>
    <contour>
      <point x="83.4246153846154" y="311.5384615384615" type="line"/>
      <point x="154.30769230769232" y="311.5384615384615" type="line"/>
      <point x="154.30769230769232" y="305.38461538461536" type="line" smooth="yes"/>
      <point x="154.30769230769232" y="165.2569230769231"/>
      <point x="358.4753475440222" y="31.024615384615377"/>
      <point x="527.5" y="30.947692307692314" type="qcurve" smooth="yes"/>
      <point x="698.4657474600871" y="30.87076923076923"/>
      <point x="884.6646153846153" y="159.58461538461532"/>
      <point x="884.6646153846153" y="261.93692307692305" type="qcurve" smooth="yes"/>
      <point x="884.6646153846153" y="367.29384615384623"/>
      <point x="732.3492307692308" y="470.22923076923075"/>
      <point x="524.3107692307691" y="509.60769230769233" type="qcurve" smooth="yes"/>
      <point x="315.85538461538465" y="548.9861538461538"/>
      <point x="138.24923076923076" y="687.5123076923079"/>
      <point x="138.24923076923076" y="798.9707692307692" type="qcurve" smooth="yes"/>
      <point x="138.24923076923076" y="920.116923076923"/>
      <point x="354.81846153846146" y="1071.3846153846152"/>
      <point x="538.823076923077" y="1071.3846153846152" type="qcurve" smooth="yes"/>
      <point x="723.5107692307693" y="1071.3846153846152"/>
      <point x="946.013846153846" y="886.8846153846152"/>
      <point x="946.013846153846" y="745.2230769230769" type="qcurve" smooth="yes"/>
      <point x="946.013846153846" y="738.6846153846153" type="line"/>
      <point x="875.4476923076923" y="738.6846153846153" type="line"/>
      <point x="875.4476923076923" y="738.6323076923078" type="line" smooth="yes"/>
      <point x="875.4476923076923" y="869.0261538461538"/>
      <point x="701.5047418335087" y="1010.436923076923"/>
      <point x="538.8230769230769" y="1010.436923076923" type="qcurve" smooth="yes"/>
      <point x="376.1099429192714" y="1010.436923076923"/>
      <point x="210.1" y="899.4630769230769"/>
      <point x="210.1" y="809.1246153846154" type="qcurve" smooth="yes"/>
      <point x="210.1" y="718.7861538461539"/>
      <point x="345.1984615384615" y="611.9230769230769"/>
      <point x="554.2692307692306" y="573.4676923076922" type="qcurve" smooth="yes"/>
      <point x="763.2630769230769" y="534.0892307692305"/>
      <point x="959.92" y="398.3076923076923"/>
      <point x="959.92" y="272.1676923076923" type="qcurve" smooth="yes"/>
      <point x="959.92" y="140.37538461538466"/>
      <point x="744.7200000000001" y="-30.0"/>
      <point x="527.5" y="-30.0" type="qcurve" smooth="yes"/>
      <point x="310.5615384615386" y="-30.0"/>
      <point x="83.4246153846154" y="148.36"/>
      <point x="83.4246153846154" y="304.6923076923077" type="qcurve" smooth="yes"/>
    </contour>
  </outline>
</glyph>
<glyph name="y" format="2">
  <advance width="1167"/>
  <unicode hex="0079"/>
  <anchor x="566.6923076923077" y="1041.3846153846155" name="top"/>
  <outline>
    <contour>
      <point x="140.45538461538465" y="-414.38461538461536" type="qcurve"/>
      <point x="140.45538461538465" y="-352.45384615384614" type="line"/>
      <point x="171.56923076923078" y="-360.91538461538465"/>
      <point x="248.10461538461536" y="-374.31230769230774"/>
      <point x="281.33846153846156" y="-374.31230769230774" type="qcurve" smooth="yes"/>
      <point x="376.44969521044993" y="-374.31230769230774"/>
      <point x="470.7446153846154" y="-277.8169230769231"/>
      <point x="589.8523076923078" y="6.429230769230769" type="qcurve" smooth="yes"/>
      <point x="587.9353846153845" y="1.2984615384615377" type="line"/>
      <point x="97.84615384615384" y="1041.3846153846155" type="line"/>
      <point x="186.8553846153846" y="1041.3846153846155" type="line"/>
      <point x="569.3000000000001" y="181.64153846153846" type="line" smooth="yes"/>
      <point x="586.7738461538462" y="142.94923076923078"/>
      <point x="611.8876923076923" y="102.58"/>
      <point x="627.0661538461538" y="64.42615384615384" type="qcurve"/>
      <point x="631.386153846154" y="64.42615384615384" type="line"/>
      <point x="647.2246153846157" y="102.57999999999998"/>
      <point x="670.7369230769231" y="142.79538461538456"/>
      <point x="685.1984615384616" y="174.02615384615385" type="qcurve" smooth="yes"/>
      <point x="1077.518461538462" y="1041.3846153846155" type="line"/>
      <point x="1159.143076923077" y="1041.3846153846155" type="line"/>
      <point x="622.807692307692" y="-79.38461538461539" type="line" smooth="yes"/>
      <point x="537.1353846153846" y="-269.1661538461538"/>
      <point x="406.60453441295545" y="-436.0"/>
      <point x="285.2507692307692" y="-436.0" type="qcurve" smooth="yes"/>
      <point x="239.26615384615388" y="-436.0"/>
      <point x="171.7861538461538" y="-423.72461538461545"/>
    </contour>
  </outline>
</glyph>
<glyph name="quoteleft" format="2">
  <advance width="410"/>
  <unicode hex="2018"/>
  <outline>
    <contour>
      <point x="128.92307692307693" y="1100.6923076923076" type="line"/>
      <point x="128.92307692307693" y="1221.6923076923076" type="line" smooth="yes"/>
      <point x="128.92307692307693" y="1311.6923076923076"/>
      <point x="200.53846153846155" y="1488.923076923077"/>
      <point x="278.0" y="1555.0769230769226" type="qcurve"/>
      <point x="343.3076923076922" y="1510.6923076923076" type="line"/>
      <point x="289.923076923077" y="1451.1538461538462"/>
      <point x="238.07692307692307" y="1305.6923076923076"/>
      <point x="238.07692307692307" y="1224.6923076923076" type="qcurve" smooth="yes"/>
      <point x="238.07692307692307" y="1100.6923076923076" type="line"/>
    </contour>
  </outline>
</glyph>
<glyph name="circumflexcombstack.case" format="2">
  <advance width="1024"/>
  <outline>
    <contour>
      <point x="545.3076923076923" y="1921.1538461538457" type="line"/>
      <point x="819.5384615384615" y="1585.0" type="line"/>
      <point x="713.846153846154" y="1583.0" type="line"/>
      <point x="503.15384615384613" y="1823.5384615384614" type="line"/>
      <point x="298.46153846153845" y="1585.0" type="line"/>
      <point x="190.46153846153845" y="1585.0" type="line"/>
      <point x="456.6923076923077" y="1921.1538461538457" type="line"/>
    </contour>
  </outline>
</glyph>
